<svg version="1.1" preserveAspectRatio="none" xmlns="http://www.w3.org/2000/svg" width="500" height="500" viewBox="0 0 500 500"><rect width="100%" height="100%" fill="#121212" fill-opacity="1"/><svg viewBox="104.4634 198.2304 346.8109 206.3946" width="333" height="198.1754373925387" x="83.5px" y="150.9123px" xmlns="http://www.w3.org/2000/svg" xmlns:xlink="http://www.w3.org/1999/xlink" preserveAspectRatio="none"><defs></defs><style>.companyName {fill:#E3E3E3;fill-opacity:1;}.icon1 {fill:#F1EC40;fill-opacity:1;}.icon2 {fill:#555555;fill-opacity:1;}.icon3 {fill:#AAAAAA;fill-opacity:1;}.icon3-str {stroke:#AAAAAA;stroke-opacity:1;}</style><g opacity="1" transform="rotate(0 104.4634 364.625)">
<svg width="346.8109" height="40" x="104.4634" y="364.625" version="1.1" preserveAspectRatio="none" viewBox="2.5781 -28.3984 249.6094 28.7891">
  <g transform="matrix(1 0 0 1 0 0)" class="companyName"><path id="id-D6z1nYkh8" d="M28.03-5.08L28.03 0L9.71 0Q9.00 0 8.19-0.17Q7.38-0.33 6.59-0.68Q5.80-1.04 5.08-1.59Q4.36-2.15 3.80-2.94Q3.24-3.73 2.91-4.78Q2.58-5.82 2.58-7.13L2.58-7.13L2.58-20.88Q2.58-21.58 2.74-22.39Q2.91-23.20 3.26-23.99Q3.61-24.79 4.18-25.51Q4.75-26.23 5.54-26.79Q6.33-27.34 7.36-27.68Q8.40-28.01 9.71-28.01L9.71-28.01L28.03-28.01L28.03-22.93L9.71-22.93Q8.71-22.93 8.18-22.40Q7.66-21.88 7.66-20.84L7.66-20.84L7.66-7.13Q7.66-6.15 8.19-5.62Q8.73-5.08 9.71-5.08L9.71-5.08L28.03-5.08Z M61.82-16.68L61.82-11.33Q61.82-8.77 60.94-6.62Q60.06-4.47 58.50-2.91Q56.93-1.35 54.79-0.48Q52.66 0.39 50.14 0.39L50.14 0.39L43.26 0.39Q40.74 0.39 38.59-0.48Q36.45-1.35 34.88-2.91Q33.32-4.47 32.43-6.62Q31.54-8.77 31.54-11.33L31.54-11.33L31.54-16.68Q31.54-19.22 32.43-21.38Q33.32-23.54 34.88-25.09Q36.45-26.64 38.59-27.52Q40.74-28.40 43.26-28.40L43.26-28.40L50.14-28.40Q52.66-28.40 54.79-27.52Q56.93-26.64 58.50-25.09Q60.06-23.54 60.94-21.38Q61.82-19.22 61.82-16.68L61.82-16.68ZM56.74-11.33L56.74-16.68Q56.74-18.18 56.26-19.40Q55.78-20.63 54.91-21.49Q54.04-22.36 52.82-22.84Q51.60-23.32 50.14-23.32L50.14-23.32L43.26-23.32Q41.78-23.32 40.56-22.84Q39.34-22.36 38.46-21.49Q37.58-20.63 37.10-19.40Q36.62-18.18 36.62-16.68L36.62-16.68L36.62-11.33Q36.62-9.82 37.10-8.60Q37.58-7.38 38.46-6.51Q39.34-5.64 40.56-5.17Q41.78-4.69 43.26-4.69L43.26-4.69L50.10-4.69Q51.58-4.69 52.80-5.17Q54.02-5.64 54.90-6.51Q55.78-7.38 56.26-8.60Q56.74-9.82 56.74-11.33L56.74-11.33Z M94.79-16.29L94.79-11.72Q94.79-9.16 93.90-7.01Q93.01-4.86 91.45-3.31Q89.88-1.76 87.73-0.88Q85.59 0 83.07 0L83.07 0L69.36 0Q68.81 0 68.34-0.20Q67.87-0.39 67.53-0.73Q67.19-1.07 66.99-1.54Q66.80-2.01 66.80-2.56L66.80-2.56L66.80-25.45Q66.80-25.98 66.99-26.45Q67.19-26.91 67.53-27.27Q67.87-27.62 68.34-27.81Q68.81-28.01 69.36-28.01L69.36-28.01L83.07-28.01Q85.59-28.01 87.73-27.13Q89.88-26.25 91.45-24.70Q93.01-23.14 93.90-20.99Q94.79-18.83 94.79-16.29L94.79-16.29ZM89.71-11.72L89.71-16.29Q89.71-17.77 89.23-19.00Q88.75-20.23 87.87-21.10Q86.99-21.97 85.77-22.45Q84.55-22.93 83.07-22.93L83.07-22.93L71.88-22.93L71.88-5.08L83.07-5.08Q84.55-5.08 85.77-5.56Q86.99-6.04 87.87-6.90Q88.75-7.77 89.23-8.99Q89.71-10.21 89.71-11.72L89.71-11.72Z M122.79-16.56L122.79-11.45L106.76-11.45L106.76-16.56L122.79-16.56ZM125.08-5.08L125.08 0L106.76 0Q105.70 0 104.45-0.37Q103.20-0.74 102.14-1.59Q101.07-2.44 100.36-3.80Q99.65-5.16 99.65-7.13L99.65-7.13L99.65-25.45Q99.65-25.98 99.84-26.45Q100.04-26.91 100.38-27.27Q100.72-27.62 101.19-27.81Q101.66-28.01 102.21-28.01L102.21-28.01L125.08-28.01L125.08-22.93L104.73-22.93L104.73-7.13Q104.73-6.13 105.25-5.61Q105.78-5.08 106.80-5.08L106.80-5.08L125.08-5.08Z M157.93-16.29L157.93-11.72Q157.93-9.16 157.04-7.01Q156.15-4.86 154.59-3.31Q153.03-1.76 150.88-0.88Q148.73 0 146.21 0L146.21 0L132.50 0Q131.95 0 131.48-0.20Q131.02-0.39 130.67-0.73Q130.33-1.07 130.14-1.54Q129.94-2.01 129.94-2.56L129.94-2.56L129.94-25.45Q129.94-25.98 130.14-26.45Q130.33-26.91 130.67-27.27Q131.02-27.62 131.48-27.81Q131.95-28.01 132.50-28.01L132.50-28.01L146.21-28.01Q148.73-28.01 150.88-27.13Q153.03-26.25 154.59-24.70Q156.15-23.14 157.04-20.99Q157.93-18.83 157.93-16.29L157.93-16.29ZM152.85-11.72L152.85-16.29Q152.85-17.77 152.37-19.00Q151.89-20.23 151.02-21.10Q150.14-21.97 148.92-22.45Q147.70-22.93 146.21-22.93L146.21-22.93L135.02-22.93L135.02-5.08L146.21-5.08Q147.70-5.08 148.92-5.56Q150.14-6.04 151.02-6.90Q151.89-7.77 152.37-8.99Q152.85-10.21 152.85-11.72L152.85-11.72Z M185.94-16.56L185.94-11.45L169.90-11.45L169.90-16.56L185.94-16.56ZM188.22-5.08L188.22 0L169.90 0Q168.85 0 167.60-0.37Q166.35-0.74 165.28-1.59Q164.22-2.44 163.51-3.80Q162.79-5.16 162.79-7.13L162.79-7.13L162.79-25.45Q162.79-25.98 162.99-26.45Q163.18-26.91 163.53-27.27Q163.87-27.62 164.34-27.81Q164.80-28.01 165.35-28.01L165.35-28.01L188.22-28.01L188.22-22.93L167.87-22.93L167.87-7.13Q167.87-6.13 168.40-5.61Q168.93-5.08 169.94-5.08L169.94-5.08L188.22-5.08Z M218.03-5.08L218.03 0L199.71 0Q199.00 0 198.19-0.17Q197.38-0.33 196.59-0.68Q195.80-1.04 195.08-1.59Q194.36-2.15 193.80-2.94Q193.24-3.73 192.91-4.78Q192.58-5.82 192.58-7.13L192.58-7.13L192.58-20.88Q192.58-21.58 192.74-22.39Q192.91-23.20 193.26-23.99Q193.61-24.79 194.18-25.51Q194.75-26.23 195.54-26.79Q196.33-27.34 197.36-27.68Q198.40-28.01 199.71-28.01L199.71-28.01L218.03-28.01L218.03-22.93L199.71-22.93Q198.71-22.93 198.18-22.40Q197.66-21.88 197.66-20.84L197.66-20.84L197.66-7.13Q197.66-6.15 198.19-5.62Q198.73-5.08 199.71-5.08L199.71-5.08L218.03-5.08Z M237.79-14.00L252.19 0L244.98 0L233.55-11.45L229.98-11.45L229.98-16.56L233.55-16.56L244.98-28.01L252.19-28.01L237.79-14.00ZM227.95-28.01L227.95 0L222.87 0L222.87-28.01L227.95-28.01Z"/></g>
</svg>
</g><g opacity="1" transform="rotate(0 191.1662 198.2304)">
<svg width="173.4054" height="136.3946" x="191.1662" y="198.2304" version="1.1" preserveAspectRatio="none" viewBox="20.094194412231445 37.156253814697266 160.09213256835938 125.92289733886719">
  <g transform="matrix(1 0 0 1 0 0)" ><g><path d="M101 105.9c1.2 4.4 3 9.1 3.8 12.6.9 3.8-.4 7-2.9 10.1-6.8 8.5-16.4 13.1-25.7 18-6.7 3.5-13.5 6.7-20.3 9.9-2 .9-4.1 1.6-6.3 2.1-2.8.6-5.9 1.4-7.8-1.6-2-3.1-1.8-6.6.1-9.6 1.4-2.1 3.2-4.2 5.3-5.7 7.6-5.7 15.5-11 23-16.7 8.7-6.6 17.1-13.5 25.5-20.4 3.2-1 .5-1.9.8-3.2-8.6 8-17.5 14.1-27.3 18.7-12.2 5.8-25 9.5-38.5 10.1-1.3.1-2.6.1-3.9 0-2.8-.4-6.6-.6-6.7-4-.1-3 1.1-6.7 3-9.1 1.7-2.2 4.9-3.5 7.7-4.4 12.2-4 24.5-7.9 36.8-11.6 7.8-2.4 17.2-4.9 24.7-6.9-3.5-3.1-1.1-4.1-2.2-8.4-.1-.6-.7-1.2-1.3-1.6-.4-.2-1.6 0-1.6.2-.6 2.1-1.7 3.7-3.7 1.7-1.2-1.3-2.3-3.7-2-5.3.8-4.5 8.2-8.6 12.7-7.4.6.2 1.5.3 1.7.8 0 0 2.8.4 1.6 4.8-.1.4-3.1 1.4-4.9 2.1 0 4.8 8 2.9 8.2 8 9.1-9.9 17.4-19.3 26.2-28.3 7-7.2 14.5-13.8 21.8-20.6 1-.9 2.3-1.7 3.6-2.2 3.5-1.5 7.1-1 9.9 1.5 2.8 2.5 1.7 6 .1 8.3-5.4 7.9-10.8 15.9-17.1 23.1-8.9 10.1-20.5 16.7-32.5 22.6-2.1 1.1-4.5 1.6-8.1 2.7 1.7.5.1 2.7 3.6 1 10.2-4.9 20.6-9.2 30.8-14 9.4-4.4 18.6-9.3 28.1-13.4 2.4-1 6-.7 8.5.3 5 1.8 5.9 5.6 2.3 9.4-4.2 4.5-8.9 8.8-13.9 12.5-8.7 6.3-17.9 12.1-26.8 18-.4.3-.9.5-1.4.7-14.8 6.2-17.4 4.2-26.2-5.5-.6-.6-1.3-2.2-2.5-2.4.6 1.2 1.4 3.3 2.1 4.4 9.9 16.8 19.9 33.6 29.9 50.4.5.8 1.2 1.6 1.3 2.4.1 1-.1 2.6-.7 2.9-.7.4-2.4.1-3-.6-1.3-1.4-2.3-3.1-3.3-4.8-9.6-15.5-19.2-31-28.9-46.4-1.3-1.8-2.4-3.5-3.6-5.2z" data-color="1" class="icon1"></path><path d="M82.4 78.4c-.2 0-.4 0-.6.1-.4.2-.6.6-.7 1.1-.5 2.3.2 4.9 1.8 6.7.4.4.9.8 1.4.8.3 0 .6-.1.8-.2 1.6-.8 2.1-3.7 1.9-5.3 0-2.2-2.7-3.2-4.6-3.2z" data-color="2" class="icon2"></path><path d="M94.8 71.8c-.4-.2-.8-.4-1.2-.2-.2.1-.3.2-.5.4-1.2 1.3-2.3 3.9-.8 5.6 1.1 1.2 3.5 2.8 5.2 2.2.3-.1.5-.2.7-.5.4-.4.4-1 .3-1.6-.2-2.4-1.6-4.7-3.7-5.9z" data-color="2" class="icon2"></path><path d="M106.1 104c-.2 0-.4.2-.4.4 0 .3-.1.6-.2.9l-1.3 1.8c-.2.2-.5.3-.8.5-.2.1-.3.3-.2.5.1.2.3.3.5.2 1.5-.7 2.6-2.2 2.7-3.8.1-.3-.1-.5-.3-.5z" data-color="2" class="icon2"></path><path d="M109.9 112.8c-.2 0-.4.2-.4.4-.1.8-.4 1.6-.9 2.3-.1.2-.1.4 0 .6.2.1.4.1.6 0 .7-.8 1-1.7 1.1-2.8 0-.3-.2-.5-.4-.5z" data-color="2" class="icon2"></path><path d="M112.6 116.5c-.2-.1-.4.1-.5.3-.2.8-.5 1.6-.9 2.3-.1.2-.1.4.1.6.2.1.4.1.6-.1.4-.8.8-1.6 1-2.5.1-.3 0-.6-.3-.6z" data-color="2" class="icon2"></path><path d="M108.8 109.8c0-.2-.2-.4-.4-.4s-.4.2-.4.4c.1 1.1-.3 2.1-1 2.8-.2.2-.2.4 0 .6.2.2.4.2.6 0 .8-.8 1.3-2.1 1.2-3.4z" data-color="2" class="icon2"></path><path d="M114.8 120.3c-.2 0-.4.2-.3.5.1.7-.1 1.5-.5 2.1-.1.2-.1.4.1.6.2.1.4.1.6-.1.6-.8.9-1.7.7-2.7-.1-.3-.3-.4-.6-.4z" data-color="2" class="icon2"></path><path d="M116.7 124c-.2 0-.4.3-.3.5.2 1 .1 2-.2 3-.1.2 0 .4.3.5h.1c.2 0 .3-.1.4-.3.4-1.1.4-2.3.2-3.4 0-.2-.3-.3-.5-.3z" data-color="2" class="icon2"></path><path d="M119.9 128.8c-.2 0-.4.2-.4.4 0 1.1-.2 2.2-.5 3.2-.1.2 0 .5.3.5.2.1.4 0 .5-.3.3-1.1.5-2.3.5-3.5 0-.1-.2-.3-.4-.3z" data-color="2" class="icon2"></path><path d="M122.5 133.3c-.2 0-.4.1-.4.4-.1.8-.3 1.7-.6 2.4-.1.2 0 .5.2.5s.5 0 .5-.2c.4-.9.6-1.8.7-2.7-.1-.2-.2-.4-.4-.4z" data-color="2" class="icon2"></path><path d="M125.3 141.3v-.3l.2-2.3c0-.2-.2-.4-.4-.4s-.4.2-.4.4l-.2 2.3c0 .6.2 1.1.6 1.2h.1c.2 0 .4-.1.4-.3 0-.3-.1-.5-.3-.6z" data-color="2" class="icon2"></path><path d="M127.7 142c-.2 0-.4.1-.5.4l-.3 2.6c0 .2.1.4.4.5.2 0 .4-.1.5-.4l.3-2.6c0-.2-.2-.4-.4-.5z" data-color="2" class="icon2"></path><path d="M130.4 146.5c-.2-.1-.4.1-.5.3l-.8 3.2c-.1.2.1.4.3.5.2.1.4-.1.5-.3l.8-3.2c0-.2-.1-.4-.3-.5z" data-color="2" class="icon2"></path><path d="M133.7 151.3c-.2-.1-.4.1-.5.3-.2.7-.3 1.3-.3 2 0 .2.2.4.4.4s.4-.2.4-.4c0-.6.1-1.2.3-1.8 0-.2-.1-.4-.3-.5z" data-color="2" class="icon2"></path><path d="M135.2 153.9c-.2-.1-.4.1-.5.3l-.7 2.1c-.1.2.1.4.3.5.2.1.4-.1.5-.3l.7-2.1c0-.2-.1-.4-.3-.5z" data-color="2" class="icon2"></path><path d="M81.8 99.2c-.1-.1-.3-.2-.4-.1C68.3 107.5 46 117 28 117.8c-.2 0-.3.2-.3.3 0 .2.1.3.3.3 18.1-.8 40.5-10.3 53.6-18.8.2 0 .3-.2.2-.4z" data-color="3" class="icon3"></path><path d="M84.9 102.1c-.1-.1-.3-.1-.4 0-12.6 11-29 16-43.5 19.4-.2 0-.3.2-.2.4 0 .2.2.3.4.2 14.5-3.4 31-8.4 43.7-19.5.1-.2.1-.4 0-.5z" data-color="3" class="icon3"></path><path d="M144.8 52.9c2.4-2 4.8-4 7.1-6 .1-.1.1-.3 0-.4-.1-.1-.3-.1-.4 0-2.4 2-4.8 4-7.1 6-10.5 8.8-21.5 18-30.4 28.7-1 1.2-2 2.4-2.9 3.6l-.1.1c-.1.1-.1.3 0 .4.1 0 .1.1.2.1s.2 0 .2-.1l.1-.1c1-1.2 1.9-2.4 2.9-3.6 9-10.8 19.9-19.9 30.4-28.7z" data-color="3" class="icon3"></path><path d="M140.9 66.6c.4-.2.4-.4.4-.6 0-.2-.2-.3-.3-.3-.2 0-.4 0-.5.2v.2c-3 1.6-5.6 3.7-8.2 5.8l-12.7 10.3c-.1.1-.1.3 0 .4.1.1.3.1.4 0l12.7-10.3c2.6-2.1 5.3-4.2 8.2-5.7z" data-color="3" class="icon3"></path><path d="M160.2 79.3c-.1-.2-.2-.2-.4-.2-13.1 4.3-25.9 9.9-38 16.5-.1.1-.2.3-.1.4.1.2.3.2.4.1 11.4-6.3 23.4-11.6 35.8-15.8h.2l1.9-.7c.1.1.2-.1.2-.3z" data-color="3" class="icon3"></path><path d="M158.9 85.9c-.2 0-.4.1-.4.3-.1 0-.3 0-.4.1-8.4 4.8-17.4 9-26.1 13-3.3 1.5-7 3.2-10.8 3.2h-.1c-.2 0-.3.1-.3.3 0 .2.1.3.3.3h.1c4 0 7.7-1.7 11.1-3.3 8.7-4 17.7-8.1 26.2-13h.2c.2 0 .4-.1.5-.2.1-.1.1-.3.1-.4-.1-.2-.2-.3-.4-.3z" data-color="3" class="icon3"></path><path d="M97.5 120.7c-4.2 5.6-10.3 9.6-15.7 13.2-7.4 4.8-15.7 10.3-24.8 12.9-.2.1-.2.2-.2.4.1.1.2.2.4.2 9.2-2.7 17.6-8.2 24.9-13 5.5-3.6 11.7-7.7 16-13.4.3-.5.2-.8.1-.9-.2-.1-.8.6-.7.6z" data-color="3" class="icon3"></path><path d="M97.2 112.9c.1-.1.1-.3.1-.4-.1-.1-.2-.2-.4-.1 0 0-1.3 1-1.1 1-4.2 3.8-9.1 7-13.8 10l-30.7 19.8c-.1.1-.2.3-.1.4.1.1.3.2.4.1l30.7-19.8c5.1-3.3 10.4-6.7 14.9-11z" data-color="3" class="icon3"></path></g></g>
</svg>
</g></svg></svg>